<svg xmlns="http://www.w3.org/2000/svg" width="93.828" height="77.86" viewBox="0 0 93.828 77.86"><defs><style>.a{fill:none;stroke:#558afa;stroke-linecap:round;stroke-linejoin:round;stroke-width:6px;}</style></defs><g transform="translate(1.5 -1.5)"><path class="a" d="M89.328,68.375a7.984,7.984,0,0,1-7.984,7.984H9.484A7.984,7.984,0,0,1,1.5,68.375V24.461a7.984,7.984,0,0,1,7.984-7.984H25.453L33.438,4.5H57.391l7.984,11.977H81.344a7.984,7.984,0,0,1,7.984,7.984Z"/><path class="a" d="M43.938,29.469A15.969,15.969,0,1,1,27.969,13.5,15.969,15.969,0,0,1,43.938,29.469Z" transform="translate(17.445 14.953)"/></g></svg>